<svg xmlns="http://www.w3.org/2000/svg" viewBox="0 0 176 124" role="img" aria-labelledby="title desc">
  <title id="title">Mirror Mile</title>
  <desc id="desc">A side mirror outline containing an M-shaped road mark</desc>
  <path d="M13 62C18 29 47 10 94 10c37 0 63 13 72 38 8 22-3 45-26 56-21 10-76 14-106 5C16 104 8 87 13 62Z" fill="#b9c8ce"/>
  <path d="M23 63C27 37 51 22 94 22c30 0 52 10 60 30 6 16-3 32-21 40-19 8-69 12-94 4-13-4-20-16-16-33Z" fill="#081418"/>
  <path d="m43 81 17-38 22 25 22-25 17 38" fill="none" stroke="#43c5d5" stroke-width="10" stroke-linecap="square" stroke-linejoin="miter"/>
  <path d="M82 43v42" stroke="#f0664a" stroke-width="6" stroke-dasharray="7 7"/>
  <path d="M146 89c14 1 23 6 27 14l-4 9c-7-5-17-8-31-8Z" fill="#b9c8ce"/>
</svg>
